<svg xmlns="http://www.w3.org/2000/svg" viewBox="0 0 400 300" width="400" height="300" role="img" aria-label="Ilustrasi mempelai pria">
<title>Ilustrasi mempelai pria</title>
<defs>
  <filter id="wobble" x="-5%" y="-5%" width="110%" height="110%">
    <feTurbulence type="fractalNoise" baseFrequency="0.035" numOctaves="2" seed="7" result="n"/>
    <feDisplacementMap in="SourceGraphic" in2="n" scale="2.2"/>
  </filter>
  <pattern id="dots" width="14" height="14" patternUnits="userSpaceOnUse">
    <circle cx="2" cy="2" r="1.1" fill="#181818" opacity="0.08"/>
  </pattern>
</defs>
<g filter="url(#wobble)">
<rect width="400" height="300" fill="#D8E8F0"/><rect width="400" height="300" fill="url(#dots)"/><circle cx="200" cy="170" r="112" fill="#EFE3C6" stroke="#181818" stroke-width="3" stroke-linecap="round" stroke-linejoin="round"/><path d="M 0 -10 Q 1.5 -1.5 10 0 Q 1.5 1.5 0 10 Q -1.5 1.5 -10 0 Q -1.5 -1.5 0 -10 Z" transform="translate(182.666157477574 83.49336917141802) scale(0.6807329282398261)" fill="#181818"/><circle cx="329.23661146915015" cy="40.21853766296252" r="2.0757632362088763" fill="#181818" opacity="1"/><path d="M 0 -10 Q 1.5 -1.5 10 0 Q 1.5 1.5 0 10 Q -1.5 1.5 -10 0 Q -1.5 -1.5 0 -10 Z" transform="translate(241.48101559760855 39.782321214768615) scale(0.6213605050498102)" fill="#181818"/><circle cx="51.00407564702954" cy="112.72841052095977" r="2.2344527828833485" fill="#181818" opacity="1"/><path d="M 0 -10 Q 1.5 -1.5 10 0 Q 1.5 1.5 0 10 Q -1.5 1.5 -10 0 Q -1.5 -1.5 0 -10 Z" transform="translate(234.73888812600376 64.35071724561348) scale(0.7615690134135362)" fill="#181818"/><path d="M 0 6 C -8 -4 -20 2 -12 12 L 0 24 L 12 12 C 20 2 8 -4 0 6 Z" transform="translate(242.06482446659976 36.426809131399004) rotate(-17.6179557932458) scale(0.5163403250699956) translate(0 -12)" fill="#B4533C" stroke="#181818" stroke-linecap="round" stroke-linejoin="round" stroke-width="5.81"/><path d="M 0 6 C -8 -4 -20 2 -12 12 L 0 24 L 12 12 C 20 2 8 -4 0 6 Z" transform="translate(87.2358076584462 46.30733259883013) rotate(-2.3787553337337286) scale(0.5056216813086487) translate(0 -12)" fill="#F7C6BA" stroke="#181818" stroke-linecap="round" stroke-linejoin="round" stroke-width="5.93"/><circle cx="324.64347478074563" cy="78.73752142739698" r="1.8941515706462648" fill="#181818" opacity="1"/><circle cx="19.67213306674083" cy="27.94368508091267" r="1.878162899663886" fill="#181818" opacity="1"/><g transform="translate(60 290) rotate(-18) scale(1.3)"><path d="M 0 0 Q 4 -30 0 -60" fill="none" stroke="#181818" stroke-width="3" stroke-linecap="round" stroke-linejoin="round"/><g transform="translate(2 -14) rotate(55) scale(0.55)"><path d="M 0 0 Q 10 -14 0 -30 Q -10 -14 0 0 Z" fill="#C6E2CB" stroke="#181818" stroke-linecap="round" stroke-linejoin="round" stroke-width="4.36"/><path d="M 0 -3 L 0 -24" stroke="#181818" stroke-width="2.91" stroke-linecap="round"/></g><g transform="translate(-2 -26) rotate(-55) scale(0.55)"><path d="M 0 0 Q 10 -14 0 -30 Q -10 -14 0 0 Z" fill="#C6E2CB" stroke="#181818" stroke-linecap="round" stroke-linejoin="round" stroke-width="4.36"/><path d="M 0 -3 L 0 -24" stroke="#181818" stroke-width="2.91" stroke-linecap="round"/></g><g transform="translate(2 -38) rotate(55) scale(0.55)"><path d="M 0 0 Q 10 -14 0 -30 Q -10 -14 0 0 Z" fill="#C6E2CB" stroke="#181818" stroke-linecap="round" stroke-linejoin="round" stroke-width="4.36"/><path d="M 0 -3 L 0 -24" stroke="#181818" stroke-width="2.91" stroke-linecap="round"/></g><g transform="translate(-2 -50) rotate(-55) scale(0.55)"><path d="M 0 0 Q 10 -14 0 -30 Q -10 -14 0 0 Z" fill="#C6E2CB" stroke="#181818" stroke-linecap="round" stroke-linejoin="round" stroke-width="4.36"/><path d="M 0 -3 L 0 -24" stroke="#181818" stroke-width="2.91" stroke-linecap="round"/></g></g><g transform="translate(340 290) rotate(18) scale(1.3)"><path d="M 0 0 Q 4 -30 0 -60" fill="none" stroke="#181818" stroke-width="3" stroke-linecap="round" stroke-linejoin="round"/><g transform="translate(2 -14) rotate(55) scale(0.55)"><path d="M 0 0 Q 10 -14 0 -30 Q -10 -14 0 0 Z" fill="#C6E2CB" stroke="#181818" stroke-linecap="round" stroke-linejoin="round" stroke-width="4.36"/><path d="M 0 -3 L 0 -24" stroke="#181818" stroke-width="2.91" stroke-linecap="round"/></g><g transform="translate(-2 -26) rotate(-55) scale(0.55)"><path d="M 0 0 Q 10 -14 0 -30 Q -10 -14 0 0 Z" fill="#C6E2CB" stroke="#181818" stroke-linecap="round" stroke-linejoin="round" stroke-width="4.36"/><path d="M 0 -3 L 0 -24" stroke="#181818" stroke-width="2.91" stroke-linecap="round"/></g><g transform="translate(2 -38) rotate(55) scale(0.55)"><path d="M 0 0 Q 10 -14 0 -30 Q -10 -14 0 0 Z" fill="#C6E2CB" stroke="#181818" stroke-linecap="round" stroke-linejoin="round" stroke-width="4.36"/><path d="M 0 -3 L 0 -24" stroke="#181818" stroke-width="2.91" stroke-linecap="round"/></g><g transform="translate(-2 -50) rotate(-55) scale(0.55)"><path d="M 0 0 Q 10 -14 0 -30 Q -10 -14 0 0 Z" fill="#C6E2CB" stroke="#181818" stroke-linecap="round" stroke-linejoin="round" stroke-width="4.36"/><path d="M 0 -3 L 0 -24" stroke="#181818" stroke-width="2.91" stroke-linecap="round"/></g></g><g transform="translate(200 150) scale(1.25)"><path d="M -30 34 Q -35 80 -36 132 L 36 132 Q 35 80 30 34 Q 0 22 -30 34 Z" fill="#34405A" stroke="#181818" stroke-width="3" stroke-linecap="round" stroke-linejoin="round"/><path d="M -11 30 L 0 60 L 11 30 Z" fill="#FFFFFF" stroke="#181818" stroke-linecap="round" stroke-linejoin="round" stroke-width="2.4"/><path d="M 0 60 L 0 128" stroke="#181818" stroke-width="2" opacity="0.5"/><path d="M -9 32 L 0 37 L -9 42 Z M 9 32 L 0 37 L 9 42 Z" fill="#B4533C" stroke="#181818" stroke-linecap="round" stroke-linejoin="round" stroke-width="2"/><circle cx="22" cy="54" r="3.2" fill="#F7C6BA" stroke="#181818" stroke-linecap="round" stroke-linejoin="round" stroke-width="1.6"/><rect x="-7" y="18" width="14" height="14" rx="5" fill="#F2CDAE" stroke="#181818" stroke-linecap="round" stroke-linejoin="round" stroke-width="2.4"/><circle cx="-24" cy="3" r="5" fill="#F2CDAE" stroke="#181818" stroke-linecap="round" stroke-linejoin="round" stroke-width="2.4"/><circle cx="24" cy="3" r="5" fill="#F2CDAE" stroke="#181818" stroke-linecap="round" stroke-linejoin="round" stroke-width="2.4"/><circle cx="0" cy="0" r="24" fill="#F2CDAE" stroke="#181818" stroke-width="3" stroke-linecap="round" stroke-linejoin="round"/><path d="M -25 0 Q -27 -30 0 -28 Q 27 -30 25 -3 Q 16 -17 2 -15 Q -12 -14 -25 0 Z" fill="#2B2522" stroke="#181818" stroke-width="3" stroke-linecap="round" stroke-linejoin="round"/><path d="M -14.08 3 q 4 -4.5 8 0" fill="none" stroke="#181818" stroke-linecap="round" stroke-linejoin="round" stroke-width="2.6"/><path d="M 6.08 3 q 4 -4.5 8 0" fill="none" stroke="#181818" stroke-linecap="round" stroke-linejoin="round" stroke-width="2.6"/><ellipse cx="-13.08" cy="11" rx="4.5" ry="3" fill="#F29C8F" opacity="0.75"/><ellipse cx="13.08" cy="11" rx="4.5" ry="3" fill="#F29C8F" opacity="0.75"/><path d="M -5 12 q 5 5 10 0" fill="none" stroke="#181818" stroke-linecap="round" stroke-linejoin="round" stroke-width="2.6"/></g><rect x="1.5" y="1.5" width="397" height="297" fill="none" stroke="#181818" stroke-width="3"/>
</g>
</svg>
