<svg xmlns="http://www.w3.org/2000/svg" viewBox="0 0 300 400" width="300" height="400" role="img" aria-label="Dua cangkir kopi">
<title>Dua cangkir kopi</title>
<defs>
  <filter id="wobble" x="-5%" y="-5%" width="110%" height="110%">
    <feTurbulence type="fractalNoise" baseFrequency="0.035" numOctaves="2" seed="7" result="n"/>
    <feDisplacementMap in="SourceGraphic" in2="n" scale="2.2"/>
  </filter>
  <pattern id="dots" width="14" height="14" patternUnits="userSpaceOnUse">
    <circle cx="2" cy="2" r="1.1" fill="#181818" opacity="0.08"/>
  </pattern>
</defs>
<g filter="url(#wobble)">
<rect width="300" height="400" fill="#EFE3C6"/><rect width="300" height="400" fill="url(#dots)"/><rect x="0" y="270" width="300" height="130" fill="#C99E7A" stroke="#181818" stroke-width="3" stroke-linecap="round" stroke-linejoin="round"/><path d="M 67 200 L 143 200 L 135 290 Q 105 300 75 290 Z" fill="#FFFFFF" stroke="#181818" stroke-width="3" stroke-linecap="round" stroke-linejoin="round"/><path d="M 141 220 q 26 4 20 30 q -4 16 -24 16" fill="none" stroke="#181818" stroke-width="3" stroke-linecap="round" stroke-linejoin="round"/><ellipse cx="105" cy="200" rx="38" ry="8" fill="#7A4E36" stroke="#181818" stroke-width="3" stroke-linecap="round" stroke-linejoin="round"/><path d="M 0 6 C -8 -4 -20 2 -12 12 L 0 24 L 12 12 C 20 2 8 -4 0 6 Z" transform="translate(105 245) rotate(0) scale(0.8) translate(0 -12)" fill="#B4533C" stroke="#181818" stroke-linecap="round" stroke-linejoin="round" stroke-width="3.75"/><path d="M 157 200 L 233 200 L 225 290 Q 195 300 165 290 Z" fill="#F7C6BA" stroke="#181818" stroke-width="3" stroke-linecap="round" stroke-linejoin="round"/><path d="M 231 220 q 26 4 20 30 q -4 16 -24 16" fill="none" stroke="#181818" stroke-width="3" stroke-linecap="round" stroke-linejoin="round"/><ellipse cx="195" cy="200" rx="38" ry="8" fill="#7A4E36" stroke="#181818" stroke-width="3" stroke-linecap="round" stroke-linejoin="round"/><path d="M 0 6 C -8 -4 -20 2 -12 12 L 0 24 L 12 12 C 20 2 8 -4 0 6 Z" transform="translate(195 245) rotate(0) scale(0.8) translate(0 -12)" fill="#B4533C" stroke="#181818" stroke-linecap="round" stroke-linejoin="round" stroke-width="3.75"/><path d="M 92 180 q -10 -18 4 -34 q 12 -16 -2 -34 M 206 180 q -10 -18 4 -34 q 12 -16 -2 -34" fill="none" stroke="#181818" stroke-linecap="round" stroke-linejoin="round" stroke-width="2.4" opacity="0.7"/><ellipse cx="150" cy="330" rx="120" ry="16" fill="#B78963" opacity="0.6"/><path d="M 0 -10 Q 1.5 -1.5 10 0 Q 1.5 1.5 0 10 Q -1.5 1.5 -10 0 Q -1.5 -1.5 0 -10 Z" transform="translate(118.58946215888366 55.37650818229697) scale(0.8608022389228148)" fill="#181818"/><circle cx="119.80624944400714" cy="163.21880157143988" r="2.153059475695984" fill="#181818" opacity="1"/><path d="M 0 -10 Q 1.5 -1.5 10 0 Q 1.5 1.5 0 10 Q -1.5 1.5 -10 0 Q -1.5 -1.5 0 -10 Z" transform="translate(119.25563288419204 136.52312147354368) scale(0.812483827021929)" fill="#181818"/><circle cx="192.6573767023593" cy="153.96627882845746" r="2.5488044765222773" fill="#181818" opacity="1"/><circle cx="278.4796102609966" cy="176.75529306496298" r="1.7675107796304905" fill="#181818" opacity="1"/><path d="M 0 -10 Q 1.5 -1.5 10 0 Q 1.5 1.5 0 10 Q -1.5 1.5 -10 0 Q -1.5 -1.5 0 -10 Z" transform="translate(190.82897304354395 118.56529711614213) scale(0.5479274892339536)" fill="#181818"/><text x="150" y="80" text-anchor="middle" font-family="Georgia, serif" font-style="italic" font-size="28" fill="#181818">just us two</text><rect x="1.5" y="1.5" width="297" height="397" fill="none" stroke="#181818" stroke-width="3"/>
</g>
</svg>
