<svg xmlns="http://www.w3.org/2000/svg" viewBox="0 0 300 400" width="300" height="400" role="img" aria-label="Piknik berdua">
<title>Piknik berdua</title>
<defs>
  <filter id="wobble" x="-5%" y="-5%" width="110%" height="110%">
    <feTurbulence type="fractalNoise" baseFrequency="0.035" numOctaves="2" seed="7" result="n"/>
    <feDisplacementMap in="SourceGraphic" in2="n" scale="2.2"/>
  </filter>
  <pattern id="dots" width="14" height="14" patternUnits="userSpaceOnUse">
    <circle cx="2" cy="2" r="1.1" fill="#181818" opacity="0.08"/>
  </pattern>
</defs>
<g filter="url(#wobble)">
<rect width="300" height="400" fill="#EAD69B"/><rect width="300" height="400" fill="url(#dots)"/><circle cx="240" cy="70" r="30" fill="#FFF3C4" stroke="#181818" stroke-width="3" stroke-linecap="round" stroke-linejoin="round"/><path d="M -10 210 Q 75.0 200 150.0 210 T 310 210 L 310 410 L -10 410 Z" fill="#C6E2CB" stroke="#181818" stroke-width="3" stroke-linecap="round" stroke-linejoin="round"/><path d="M 40 250 L 260 250 L 290 360 L 10 360 Z" fill="#FFFFFF" stroke="#181818" stroke-width="3" stroke-linecap="round" stroke-linejoin="round"/><path d="M 40.0 250 L 58.0 250 L 33.0 360 L 10.0 360 Z" fill="#F7C6BA" opacity="0.8"/><path d="M 76.6 250 L 94.6 250 L 79.6 360 L 56.6 360 Z" fill="#F7C6BA" opacity="0.8"/><path d="M 113.2 250 L 131.2 250 L 126.2 360 L 103.2 360 Z" fill="#F7C6BA" opacity="0.8"/><path d="M 149.8 250 L 167.8 250 L 172.8 360 L 149.8 360 Z" fill="#F7C6BA" opacity="0.8"/><path d="M 186.4 250 L 204.4 250 L 219.4 360 L 196.4 360 Z" fill="#F7C6BA" opacity="0.8"/><path d="M 223.0 250 L 241.0 250 L 266.0 360 L 243.0 360 Z" fill="#F7C6BA" opacity="0.8"/><path d="M 40 250 L 260 250 L 290 360 L 10 360 Z" fill="none" stroke="#181818" stroke-width="3" stroke-linecap="round" stroke-linejoin="round"/><path d="M 90 270 L 170 270 L 162 318 L 98 318 Z" fill="#EFE3C6" stroke="#181818" stroke-width="3" stroke-linecap="round" stroke-linejoin="round"/><path d="M 104 270 Q 130 236 156 270" fill="none" stroke="#181818" stroke-width="3" stroke-linecap="round" stroke-linejoin="round"/><path d="M 94 286 L 166 286 M 96 302 L 164 302" stroke="#181818" stroke-linecap="round" stroke-linejoin="round" stroke-width="2"/><path d="M 193 300 L 217 300 L 214 322 L 196 322 Z" fill="#FFFFFF" stroke="#181818" stroke-linecap="round" stroke-linejoin="round" stroke-width="2.4"/><path d="M 223 300 L 247 300 L 244 322 L 226 322 Z" fill="#FFFFFF" stroke="#181818" stroke-linecap="round" stroke-linejoin="round" stroke-width="2.4"/><path d="M 0 6 C -8 -4 -20 2 -12 12 L 0 24 L 12 12 C 20 2 8 -4 0 6 Z" transform="translate(220 280) rotate(0) scale(0.45) translate(0 -12)" fill="#B4533C" stroke="#181818" stroke-linecap="round" stroke-linejoin="round" stroke-width="6.67"/><g transform="translate(30 205) rotate(-10) scale(1.1)"><path d="M 0 0 Q 4 -30 0 -60" fill="none" stroke="#181818" stroke-width="3" stroke-linecap="round" stroke-linejoin="round"/><g transform="translate(2 -14) rotate(55) scale(0.55)"><path d="M 0 0 Q 10 -14 0 -30 Q -10 -14 0 0 Z" fill="#C6E2CB" stroke="#181818" stroke-linecap="round" stroke-linejoin="round" stroke-width="4.36"/><path d="M 0 -3 L 0 -24" stroke="#181818" stroke-width="2.91" stroke-linecap="round"/></g><g transform="translate(-2 -26) rotate(-55) scale(0.55)"><path d="M 0 0 Q 10 -14 0 -30 Q -10 -14 0 0 Z" fill="#C6E2CB" stroke="#181818" stroke-linecap="round" stroke-linejoin="round" stroke-width="4.36"/><path d="M 0 -3 L 0 -24" stroke="#181818" stroke-width="2.91" stroke-linecap="round"/></g><g transform="translate(2 -38) rotate(55) scale(0.55)"><path d="M 0 0 Q 10 -14 0 -30 Q -10 -14 0 0 Z" fill="#C6E2CB" stroke="#181818" stroke-linecap="round" stroke-linejoin="round" stroke-width="4.36"/><path d="M 0 -3 L 0 -24" stroke="#181818" stroke-width="2.91" stroke-linecap="round"/></g><g transform="translate(-2 -50) rotate(-55) scale(0.55)"><path d="M 0 0 Q 10 -14 0 -30 Q -10 -14 0 0 Z" fill="#C6E2CB" stroke="#181818" stroke-linecap="round" stroke-linejoin="round" stroke-width="4.36"/><path d="M 0 -3 L 0 -24" stroke="#181818" stroke-width="2.91" stroke-linecap="round"/></g></g><g transform="translate(275 208) rotate(12) scale(1.0)"><path d="M 0 0 Q 4 -30 0 -60" fill="none" stroke="#181818" stroke-width="3" stroke-linecap="round" stroke-linejoin="round"/><g transform="translate(2 -14) rotate(55) scale(0.55)"><path d="M 0 0 Q 10 -14 0 -30 Q -10 -14 0 0 Z" fill="#C6E2CB" stroke="#181818" stroke-linecap="round" stroke-linejoin="round" stroke-width="4.36"/><path d="M 0 -3 L 0 -24" stroke="#181818" stroke-width="2.91" stroke-linecap="round"/></g><g transform="translate(-2 -26) rotate(-55) scale(0.55)"><path d="M 0 0 Q 10 -14 0 -30 Q -10 -14 0 0 Z" fill="#C6E2CB" stroke="#181818" stroke-linecap="round" stroke-linejoin="round" stroke-width="4.36"/><path d="M 0 -3 L 0 -24" stroke="#181818" stroke-width="2.91" stroke-linecap="round"/></g><g transform="translate(2 -38) rotate(55) scale(0.55)"><path d="M 0 0 Q 10 -14 0 -30 Q -10 -14 0 0 Z" fill="#C6E2CB" stroke="#181818" stroke-linecap="round" stroke-linejoin="round" stroke-width="4.36"/><path d="M 0 -3 L 0 -24" stroke="#181818" stroke-width="2.91" stroke-linecap="round"/></g><g transform="translate(-2 -50) rotate(-55) scale(0.55)"><path d="M 0 0 Q 10 -14 0 -30 Q -10 -14 0 0 Z" fill="#C6E2CB" stroke="#181818" stroke-linecap="round" stroke-linejoin="round" stroke-width="4.36"/><path d="M 0 -3 L 0 -24" stroke="#181818" stroke-width="2.91" stroke-linecap="round"/></g></g><circle cx="61.546662675964264" cy="129.7422417232459" r="2.0791004720574513" fill="#181818" opacity="1"/><path d="M 0 -10 Q 1.5 -1.5 10 0 Q 1.5 1.5 0 10 Q -1.5 1.5 -10 0 Q -1.5 -1.5 0 -10 Z" transform="translate(75.02778784399035 146.40660402843992) scale(0.7020336613880047)" fill="#181818"/><circle cx="80.31887996299957" cy="18.51526215886814" r="2.5327781318527647" fill="#181818" opacity="1"/><path d="M 0 -10 Q 1.5 -1.5 10 0 Q 1.5 1.5 0 10 Q -1.5 1.5 -10 0 Q -1.5 -1.5 0 -10 Z" transform="translate(131.04245527301651 41.47738115927327) scale(0.8685980028888433)" fill="#181818"/><circle cx="201.1944890258949" cy="88.77065898183669" r="2.2158900889891404" fill="#181818" opacity="1"/><rect x="1.5" y="1.5" width="297" height="397" fill="none" stroke="#181818" stroke-width="3"/>
</g>
</svg>
